<svg width="20" height="20" viewBox="0 0 20 20" fill="none" xmlns="http://www.w3.org/2000/svg">
<path d="M10.0001 18.3334C5.39758 18.3334 1.66675 14.6025 1.66675 10C1.66675 5.39752 5.39758 1.66669 10.0001 1.66669C14.6026 1.66669 18.3334 5.39752 18.3334 10C18.3334 14.6025 14.6026 18.3334 10.0001 18.3334ZM10.0001 16.6667C11.7682 16.6667 13.4639 15.9643 14.7141 14.7141C15.9644 13.4638 16.6667 11.7681 16.6667 10C16.6667 8.23191 15.9644 6.53622 14.7141 5.28598C13.4639 4.03573 11.7682 3.33335 10.0001 3.33335C8.23197 3.33335 6.53628 4.03573 5.28604 5.28598C4.03579 6.53622 3.33341 8.23191 3.33341 10C3.33341 11.7681 4.03579 13.4638 5.28604 14.7141C6.53628 15.9643 8.23197 16.6667 10.0001 16.6667ZM9.16925 13.3334L5.63341 9.79752L6.81175 8.61919L9.16925 10.9767L13.8826 6.26252L15.0617 7.44085L9.16925 13.3334Z" fill="#4DA66B"/>
</svg>
