<svg width="20" height="20" viewBox="0 0 20 20" fill="none" xmlns="http://www.w3.org/2000/svg">
<path d="M5.14169 15C5.31386 14.5121 5.63314 14.0896 6.05552 13.7907C6.4779 13.4918 6.98259 13.3313 7.50002 13.3313C8.01745 13.3313 8.52214 13.4918 8.94452 13.7907C9.3669 14.0896 9.68619 14.5121 9.85835 15H18.3334V16.6667H9.85835C9.68619 17.1547 9.3669 17.5772 8.94452 17.8761C8.52214 18.1749 8.01745 18.3354 7.50002 18.3354C6.98259 18.3354 6.4779 18.1749 6.05552 17.8761C5.63314 17.5772 5.31386 17.1547 5.14169 16.6667H1.66669V15H5.14169ZM10.1417 9.16672C10.3139 8.67877 10.6331 8.25624 11.0555 7.95737C11.4779 7.6585 11.9826 7.49801 12.5 7.49801C13.0174 7.49801 13.5221 7.6585 13.9445 7.95737C14.3669 8.25624 14.6862 8.67877 14.8584 9.16672H18.3334V10.8334H14.8584C14.6862 11.3213 14.3669 11.7439 13.9445 12.0427C13.5221 12.3416 13.0174 12.5021 12.5 12.5021C11.9826 12.5021 11.4779 12.3416 11.0555 12.0427C10.6331 11.7439 10.3139 11.3213 10.1417 10.8334H1.66669V9.16672H10.1417ZM5.14169 3.33338C5.31386 2.84544 5.63314 2.42291 6.05552 2.12404C6.4779 1.82517 6.98259 1.66467 7.50002 1.66467C8.01745 1.66467 8.52214 1.82517 8.94452 2.12404C9.3669 2.42291 9.68619 2.84544 9.85835 3.33338H18.3334V5.00005H9.85835C9.68619 5.48799 9.3669 5.91052 8.94452 6.20939C8.52214 6.50826 8.01745 6.66876 7.50002 6.66876C6.98259 6.66876 6.4779 6.50826 6.05552 6.20939C5.63314 5.91052 5.31386 5.48799 5.14169 5.00005H1.66669V3.33338H5.14169ZM7.50002 5.00005C7.72103 5.00005 7.933 4.91225 8.08928 4.75597C8.24556 4.59969 8.33335 4.38773 8.33335 4.16671C8.33335 3.9457 8.24556 3.73374 8.08928 3.57746C7.933 3.42118 7.72103 3.33338 7.50002 3.33338C7.27901 3.33338 7.06705 3.42118 6.91077 3.57746C6.75448 3.73374 6.66669 3.9457 6.66669 4.16671C6.66669 4.38773 6.75448 4.59969 6.91077 4.75597C7.06705 4.91225 7.27901 5.00005 7.50002 5.00005ZM12.5 10.8334C12.721 10.8334 12.933 10.7456 13.0893 10.5893C13.2456 10.433 13.3334 10.2211 13.3334 10C13.3334 9.77903 13.2456 9.56707 13.0893 9.41079C12.933 9.25451 12.721 9.16672 12.5 9.16672C12.279 9.16672 12.067 9.25451 11.9108 9.41079C11.7545 9.56707 11.6667 9.77903 11.6667 10C11.6667 10.2211 11.7545 10.433 11.9108 10.5893C12.067 10.7456 12.279 10.8334 12.5 10.8334ZM7.50002 16.6667C7.72103 16.6667 7.933 16.5789 8.08928 16.4226C8.24556 16.2664 8.33335 16.0544 8.33335 15.8334C8.33335 15.6124 8.24556 15.4004 8.08928 15.2441C7.933 15.0878 7.72103 15 7.50002 15C7.27901 15 7.06705 15.0878 6.91077 15.2441C6.75448 15.4004 6.66669 15.6124 6.66669 15.8334C6.66669 16.0544 6.75448 16.2664 6.91077 16.4226C7.06705 16.5789 7.27901 16.6667 7.50002 16.6667Z" fill="#191919"/>
</svg>
