<svg width="20" height="20" viewBox="0 0 20 20" fill="none" xmlns="http://www.w3.org/2000/svg">
<path d="M9.99996 18.3334C5.39746 18.3334 1.66663 14.6025 1.66663 10C1.66663 5.39752 5.39746 1.66669 9.99996 1.66669C14.6025 1.66669 18.3333 5.39752 18.3333 10C18.3333 14.6025 14.6025 18.3334 9.99996 18.3334ZM9.99996 16.6667C11.7681 16.6667 13.4638 15.9643 14.714 14.7141C15.9642 13.4638 16.6666 11.7681 16.6666 10C16.6666 8.23191 15.9642 6.53622 14.714 5.28598C13.4638 4.03573 11.7681 3.33335 9.99996 3.33335C8.23185 3.33335 6.53616 4.03573 5.28591 5.28598C4.03567 6.53622 3.33329 8.23191 3.33329 10C3.33329 11.7681 4.03567 13.4638 5.28591 14.7141C6.53616 15.9643 8.23185 16.6667 9.99996 16.6667ZM9.16663 12.5H10.8333V14.1667H9.16663V12.5ZM9.16663 5.83335H10.8333V10.8334H9.16663V5.83335Z" fill="#B83232"/>
</svg>
