<svg width="16" height="16" viewBox="0 0 16 16" fill="none" xmlns="http://www.w3.org/2000/svg">
<path d="M12.9167 10.0687C13.3492 9.0409 13.4488 7.90337 13.2014 6.81605C12.954 5.72873 12.372 4.74629 11.5373 4.00687C10.7026 3.26744 9.65712 2.80821 8.5479 2.69374C7.43867 2.57927 6.32146 2.81532 5.35334 3.3687L4.69201 2.2107C5.70376 1.63244 6.84947 1.32961 8.01481 1.33242C9.18015 1.33522 10.3244 1.64357 11.3333 2.2267C14.3267 3.9547 15.4733 7.6547 14.078 10.74L14.9727 11.256L12.196 12.732L12.086 9.58936L12.9167 10.0687ZM3.08334 5.93136C2.65077 6.95916 2.55119 8.09669 2.79862 9.18401C3.04604 10.2713 3.62802 11.2538 4.46272 11.9932C5.29743 12.7326 6.34289 13.1919 7.45211 13.3063C8.56134 13.4208 9.67855 13.1847 10.6467 12.6314L11.308 13.7894C10.2963 14.3676 9.15055 14.6705 7.9852 14.6676C6.81986 14.6648 5.67563 14.3565 4.66667 13.7734C1.67334 12.0454 0.526672 8.34536 1.92201 5.26003L1.02667 4.7447L3.80334 3.2687L3.91334 6.41136L3.08267 5.93203L3.08334 5.93136ZM8.94334 9.88536L7.05601 8.00003L5.17067 9.88536L4.22801 8.9427L7.05667 6.1147L8.94267 8.00003L10.8287 6.1147L11.7713 7.05736L8.94267 9.88536H8.94334Z" fill="white"/>
</svg>
