<svg width="24" height="24" viewBox="0 0 24 24" fill="none" xmlns="http://www.w3.org/2000/svg">
<g clip-path="url(#clip0_134_4422)">
<path d="M12 24.0017C18.6274 24.0017 24 18.6291 24 12.0017C24 5.37429 18.6274 0.00170898 12 0.00170898C5.37258 0.00170898 0 5.37429 0 12.0017C0 18.6291 5.37258 24.0017 12 24.0017Z" fill="#1977F3"/>
<path d="M16.6711 15.4712L17.2026 12.0017H13.8748V9.75051C13.8748 8.80212 14.3389 7.87566 15.8307 7.87566H17.3444V4.92249C17.3444 4.92249 15.9707 4.68793 14.6579 4.68793C11.9173 4.68793 10.1252 6.34845 10.1252 9.35731V12.0017H7.07748V15.4712H10.1252V23.8565C10.736 23.9527 11.3621 24.0017 12 24.0017C12.6379 24.0017 13.264 23.951 13.8748 23.8565V15.4712H16.6711Z" fill="white"/>
</g>
<defs>
<clipPath id="clip0_134_4422">
<rect width="24" height="24" fill="white"/>
</clipPath>
</defs>
</svg>
