<svg width="20" height="20" viewBox="0 0 20 20" fill="none" xmlns="http://www.w3.org/2000/svg">
<path d="M4.16667 13.3333V18.3333H2.5V2.5H10.3183C10.4731 2.50008 10.6247 2.54324 10.7563 2.62463C10.8879 2.70602 10.9942 2.82243 11.0633 2.96083L11.6667 4.16667H16.6667C16.8877 4.16667 17.0996 4.25446 17.2559 4.41074C17.4122 4.56702 17.5 4.77899 17.5 5V14.1667C17.5 14.3877 17.4122 14.5996 17.2559 14.7559C17.0996 14.9122 16.8877 15 16.6667 15H11.3483C11.1936 14.9999 11.042 14.9568 10.9104 14.8754C10.7788 14.794 10.6725 14.6776 10.6033 14.5392L10 13.3333H4.16667ZM4.16667 4.16667V11.6667H11.03L11.8633 13.3333H15.8333V5.83333H10.6367L9.80333 4.16667H4.16667Z" fill="#B83232"/>
</svg>
