<svg width="20" height="24" viewBox="0 0 20 24" fill="none" xmlns="http://www.w3.org/2000/svg">
<path d="M18.9163 8.18242C18.7771 8.29043 16.3192 9.67537 16.3192 12.7549C16.3192 16.3168 19.4467 17.577 19.5403 17.6082C19.5259 17.685 19.0435 19.3339 17.8914 21.0141C16.8641 22.4926 15.7912 23.9688 14.159 23.9688C12.5268 23.9688 12.1068 23.0207 10.2226 23.0207C8.38643 23.0207 7.73357 24 6.24062 24C4.74767 24 3.70596 22.6319 2.50824 20.9517C1.12091 18.9787 0 15.9136 0 13.0045C0 8.33843 3.0339 5.86379 6.0198 5.86379C7.60636 5.86379 8.92889 6.90549 9.92499 6.90549C10.8731 6.90549 12.3516 5.80138 14.1566 5.80138C14.8407 5.80138 17.2985 5.86379 18.9163 8.18242ZM13.2997 3.82598C14.0462 2.9403 14.5742 1.71137 14.5742 0.482448C14.5742 0.312031 14.5599 0.139214 14.5286 0C13.3141 0.0456048 11.8692 0.808882 10.9979 1.81938C10.3138 2.59706 9.67537 3.82598 9.67537 5.07171C9.67537 5.25893 9.70656 5.44615 9.72097 5.50615C9.79777 5.52055 9.92259 5.53736 10.0474 5.53736C11.1371 5.53736 12.5076 4.80768 13.2997 3.82598Z" fill="black"/>
</svg>
