<svg width="89" height="24" viewBox="0 0 89 24" fill="none" xmlns="http://www.w3.org/2000/svg">
<path d="M3.7431 20.2037V9.11633H6.26215V20.2037H3.7431ZM0 9.47112V7.25365H10.0052V9.47112H0Z" fill="#5732BF"/>
<path d="M17.0164 20.2037V17.3476H16.6083V14.1722C16.6083 13.6163 16.4723 13.2024 16.2003 12.9304C15.9283 12.6584 15.5085 12.5224 14.9408 12.5224C14.6451 12.5224 14.2903 12.5283 13.8764 12.5401C13.4625 12.5519 13.0426 12.5697 12.6169 12.5933C12.203 12.6052 11.8304 12.6229 11.4993 12.6465V10.5532C11.7713 10.5296 12.0788 10.5059 12.4217 10.4823C12.7647 10.4586 13.1136 10.4468 13.4684 10.4468C13.835 10.435 14.178 10.4291 14.4973 10.4291C15.4907 10.4291 16.3127 10.5592 16.9631 10.8193C17.6254 11.0795 18.1221 11.4875 18.4533 12.0434C18.7962 12.5992 18.9677 13.3266 18.9677 14.2254V20.2037H17.0164ZM13.9119 20.4521C13.2141 20.4521 12.5991 20.3279 12.0669 20.0795C11.5466 19.8312 11.1386 19.4764 10.8429 19.0151C10.5591 18.5539 10.4171 17.9981 10.4171 17.3476C10.4171 16.638 10.5886 16.0585 10.9316 15.6091C11.2864 15.1597 11.7772 14.8226 12.404 14.5979C13.0426 14.3732 13.7877 14.2609 14.6392 14.2609H16.8744V15.7333H14.6037C14.0361 15.7333 13.5985 15.8752 13.291 16.159C12.9953 16.431 12.8475 16.7858 12.8475 17.2234C12.8475 17.661 12.9953 18.0158 13.291 18.2878C13.5985 18.5598 14.0361 18.6958 14.6037 18.6958C14.9467 18.6958 15.2601 18.6367 15.5439 18.5184C15.8396 18.3883 16.0821 18.1755 16.2713 17.8798C16.4723 17.5723 16.5847 17.1584 16.6083 16.638L17.2115 17.3299C17.1524 18.004 16.9868 18.5716 16.7148 19.0329C16.4546 19.4941 16.088 19.8489 15.6149 20.0973C15.1537 20.3338 14.586 20.4521 13.9119 20.4521Z" fill="#5732BF"/>
<path d="M21.609 23.7517V10.571H23.5604V14.7221L23.2588 14.7044C23.3061 13.7228 23.5072 12.9008 23.862 12.2385C24.2286 11.5762 24.7135 11.0854 25.3166 10.7661C25.9198 10.435 26.5939 10.2694 27.339 10.2694C28.0249 10.2694 28.6399 10.3936 29.1839 10.6419C29.7398 10.8903 30.2128 11.2392 30.6031 11.6886C31.0052 12.138 31.3127 12.6643 31.5256 13.2674C31.7384 13.8588 31.8449 14.4974 31.8449 15.1833V15.5559C31.8449 16.2536 31.7384 16.9041 31.5256 17.5073C31.3245 18.0986 31.0229 18.6249 30.6208 19.0861C30.2306 19.5355 29.7575 19.8903 29.2017 20.1505C28.6458 20.3988 28.0249 20.523 27.339 20.523C26.6176 20.523 25.9553 20.3752 25.3521 20.0795C24.7608 19.772 24.2818 19.3049 23.9152 18.6781C23.5486 18.0394 23.3416 17.2175 23.2943 16.2122L24.0749 17.4008V23.7517H21.609ZM26.7181 18.4475C27.2503 18.4475 27.7115 18.3174 28.1018 18.0572C28.5039 17.797 28.8173 17.4363 29.042 16.9751C29.2667 16.502 29.3791 15.9698 29.3791 15.3785C29.3791 14.7635 29.2667 14.2313 29.042 13.7819C28.8173 13.3325 28.5039 12.9836 28.1018 12.7352C27.7115 12.4751 27.2503 12.345 26.7181 12.345C26.2332 12.345 25.7838 12.4514 25.3699 12.6643C24.9678 12.8772 24.6366 13.1906 24.3764 13.6045C24.1281 14.0184 24.0039 14.5151 24.0039 15.0946V15.8042C24.0039 16.3601 24.134 16.8331 24.3942 17.2234C24.6544 17.6137 24.9914 17.9153 25.4053 18.1281C25.8193 18.341 26.2568 18.4475 26.7181 18.4475Z" fill="#5732BF"/>
<path d="M32.8889 13.09V11.7063H33.3147C33.6576 11.7063 33.9296 11.6531 34.1307 11.5467C34.3317 11.4402 34.4796 11.2628 34.5742 11.0145C34.6688 10.7543 34.7161 10.4113 34.7161 9.98558V8.67283L35.2306 9.66626C35.1478 9.72539 35.0295 9.77861 34.8758 9.82592C34.722 9.8614 34.5624 9.87914 34.3968 9.87914C34.0065 9.87914 33.6813 9.76087 33.4211 9.52434C33.1609 9.27598 33.0308 8.93893 33.0308 8.51317C33.0308 8.11107 33.155 7.77401 33.4034 7.502C33.6517 7.21817 34.0065 7.07625 34.4677 7.07625C34.7634 7.07625 35.0354 7.14721 35.2838 7.28912C35.544 7.41922 35.7509 7.65575 35.9047 7.99872C36.0584 8.32986 36.1353 8.7911 36.1353 9.38242V9.684C36.1353 10.5237 36.017 11.1919 35.7805 11.6886C35.5558 12.1853 35.2246 12.546 34.7871 12.7707C34.3495 12.9836 33.8173 13.09 33.1905 13.09H32.8889Z" fill="#5732BF"/>
<path d="M38.1708 20.2037V10.571H40.1222V14.7044H39.9448C39.9448 13.7228 40.0749 12.9067 40.335 12.2563C40.5952 11.594 40.9796 11.0973 41.4881 10.7661C42.0085 10.435 42.653 10.2694 43.4218 10.2694H43.5282C44.6754 10.2694 45.5446 10.6419 46.136 11.387C46.7273 12.1203 47.0229 13.2201 47.0229 14.6866V20.2037H44.5571V14.4737C44.5571 13.8824 44.3856 13.4034 44.0427 13.0368C43.7115 12.6702 43.2503 12.4869 42.659 12.4869C42.0558 12.4869 41.565 12.6761 41.1866 13.0546C40.8199 13.4212 40.6366 13.9179 40.6366 14.5447V20.2037H38.1708Z" fill="#5732BF"/>
<path d="M52.0333 16.23V14.048H54.5524C55.0609 14.048 55.4867 13.9475 55.8297 13.7464C56.1844 13.5454 56.4505 13.2674 56.6279 12.9126C56.8172 12.5578 56.9118 12.1498 56.9118 11.6886C56.9118 11.2274 56.8172 10.8193 56.6279 10.4646C56.4505 10.1098 56.1844 9.83774 55.8297 9.64852C55.4867 9.44747 55.0609 9.34694 54.5524 9.34694H52.0333V7.16495H54.3395C55.4275 7.16495 56.35 7.34235 57.1069 7.69714C57.8756 8.05194 58.4611 8.56048 58.8632 9.22276C59.2653 9.87322 59.4663 10.6479 59.4663 11.5467V11.8305C59.4663 12.7293 59.2653 13.5099 58.8632 14.1722C58.4611 14.8226 57.8756 15.3312 57.1069 15.6978C56.35 16.0526 55.4275 16.23 54.3395 16.23H52.0333ZM49.8691 20.2037V7.16495H52.3881V20.2037H49.8691Z" fill="#5732BF"/>
<path d="M67.0655 20.2037V17.3476H66.6574V14.1722C66.6574 13.6163 66.5214 13.2024 66.2494 12.9304C65.9774 12.6584 65.5576 12.5224 64.9899 12.5224C64.6942 12.5224 64.3394 12.5283 63.9255 12.5401C63.5116 12.5519 63.0917 12.5697 62.666 12.5933C62.2521 12.6052 61.8795 12.6229 61.5484 12.6465V10.5532C61.8204 10.5296 62.1279 10.5059 62.4708 10.4823C62.8138 10.4586 63.1627 10.4468 63.5175 10.4468C63.8841 10.435 64.2271 10.4291 64.5464 10.4291C65.5398 10.4291 66.3618 10.5592 67.0122 10.8193C67.6745 11.0795 68.1712 11.4875 68.5024 12.0434C68.8454 12.5992 69.0168 13.3266 69.0168 14.2254V20.2037H67.0655ZM63.961 20.4521C63.2632 20.4521 62.6482 20.3279 62.1161 20.0795C61.5957 19.8312 61.1877 19.4764 60.892 19.0151C60.6082 18.5539 60.4663 17.9981 60.4663 17.3476C60.4663 16.638 60.6377 16.0585 60.9807 15.6091C61.3355 15.1597 61.8263 14.8226 62.4531 14.5979C63.0917 14.3732 63.8368 14.2609 64.6883 14.2609H66.9235V15.7333H64.6528C64.0852 15.7333 63.6476 15.8752 63.3401 16.159C63.0444 16.431 62.8966 16.7858 62.8966 17.2234C62.8966 17.661 63.0444 18.0158 63.3401 18.2878C63.6476 18.5598 64.0852 18.6958 64.6528 18.6958C64.9958 18.6958 65.3092 18.6367 65.5931 18.5184C65.8887 18.3883 66.1312 18.1755 66.3204 17.8798C66.5214 17.5723 66.6338 17.1584 66.6574 16.638L67.2606 17.3299C67.2015 18.004 67.0359 18.5716 66.7639 19.0329C66.5037 19.4941 66.1371 19.8489 65.664 20.0973C65.2028 20.3338 64.6351 20.4521 63.961 20.4521Z" fill="#5732BF"/>
<path d="M71.253 24V21.889H73.0625C73.4055 21.889 73.6893 21.8417 73.914 21.7471C74.1505 21.6643 74.3457 21.5224 74.4994 21.3213C74.6532 21.1321 74.7714 20.866 74.8542 20.523L77.4442 10.571H79.8036L76.9475 21.0552C76.7583 21.7766 76.4922 22.3502 76.1492 22.776C75.8062 23.2136 75.3627 23.527 74.8187 23.7162C74.2865 23.9054 73.6242 24 72.8319 24H71.253ZM74.2511 19.9908V18.0394H76.3089V19.9908H74.2511ZM73.4173 19.9908L70.2951 10.571H72.7786L75.7412 19.9908H73.4173Z" fill="#5732BF"/>
<path d="M88.136 3.94218C88.136 6.11938 86.371 7.88436 84.1938 7.88436C82.0166 7.88436 80.2516 6.11938 80.2516 3.94218C80.2516 1.76497 82.0166 0 84.1938 0C86.371 0 88.136 1.76497 88.136 3.94218Z" fill="#FDC228"/>
<path d="M77.2951 3.94242C77.2951 5.03102 76.4126 5.91351 75.324 5.91351C74.2354 5.91351 73.3529 5.03102 73.3529 3.94242C73.3529 2.85382 74.2354 1.97133 75.324 1.97133C76.4126 1.97133 77.2951 2.85382 77.2951 3.94242Z" fill="#FDC228"/>
</svg>
