<svg width="188" height="191" viewBox="0 0 188 191" fill="none" xmlns="http://www.w3.org/2000/svg">
<path d="M93.8428 190.506C145.671 190.506 187.686 188.053 187.686 185.027C187.686 182.001 145.671 179.548 93.8428 179.548C42.0148 179.548 0 182.001 0 185.027C0 188.053 42.0148 190.506 93.8428 190.506Z" fill="#E6DDFF"/>
<path d="M128.213 183.843H49.3708C48.2724 183.854 47.1836 183.637 46.1737 183.205C45.1638 182.773 44.2549 182.136 43.505 181.333C42.755 180.53 42.1805 179.58 41.8179 178.543C41.4553 177.506 41.3125 176.405 41.3988 175.31L52.4017 8.53267C52.5859 6.23485 53.6193 4.088 55.3002 2.5106C56.9812 0.933197 59.1894 0.0383132 61.4942 0.000388956H140.33C141.428 -0.0104973 142.516 0.207242 143.525 0.639752C144.534 1.07226 145.442 1.71008 146.191 2.51261C146.941 3.31515 147.515 4.26484 147.877 5.30126C148.239 6.33769 148.382 7.43816 148.295 8.53267L137.306 175.31C137.122 177.608 136.088 179.755 134.407 181.332C132.726 182.91 130.518 183.805 128.213 183.843Z" fill="#270685"/>
<path d="M144.812 44.8489H135.267C135.002 44.8515 134.74 44.799 134.496 44.6947C134.252 44.5904 134.033 44.4365 133.852 44.2429C133.671 44.0493 133.533 43.8201 133.445 43.57C133.358 43.3199 133.323 43.0542 133.344 42.79L134.295 28.3446C134.348 27.7953 134.602 27.285 135.008 26.9113C135.415 26.5376 135.944 26.3269 136.496 26.3195H146.034C146.296 26.3172 146.556 26.3688 146.797 26.471C147.038 26.5733 147.255 26.7241 147.436 26.914C147.616 27.1039 147.756 27.3289 147.846 27.575C147.935 27.8211 147.974 28.0831 147.958 28.3446L147.006 42.79C146.962 43.3448 146.713 43.8632 146.308 44.244C145.902 44.6248 145.369 44.8405 144.812 44.8489Z" fill="#270685"/>
<path d="M127.012 183.843H48.1693C47.0712 183.853 45.9828 183.636 44.9734 183.203C43.964 182.771 43.0555 182.133 42.3058 181.331C41.5561 180.528 40.9815 179.579 40.6185 178.542C40.2555 177.506 40.112 176.405 40.1973 175.31L51.2272 8.53271C51.4114 6.23489 52.4447 4.08803 54.1257 2.51064C55.8067 0.933235 58.0148 0.0383518 60.3197 0.00042761H139.162C140.256 -0.00388186 141.339 0.218707 142.343 0.654129C143.346 1.08955 144.248 1.72835 144.992 2.53016C145.736 3.33198 146.306 4.27939 146.666 5.31256C147.025 6.34573 147.166 7.4422 147.08 8.53271L136.104 175.31C135.92 177.608 134.887 179.755 133.206 181.332C131.525 182.91 129.317 183.805 127.012 183.843Z" fill="#6F45E9"/>
<path d="M130.59 164.415H47.177C46.5531 164.422 45.9346 164.299 45.3609 164.053C44.7873 163.808 44.271 163.446 43.845 162.99C43.4189 162.534 43.0924 161.994 42.8863 161.405C42.6802 160.816 42.5989 160.191 42.6477 159.569L52.2262 14.3716C52.3298 13.0697 52.9135 11.8527 53.864 10.9571C54.8146 10.0614 56.0641 9.551 57.3699 9.52497H140.803C141.427 9.51838 142.045 9.64175 142.619 9.88722C143.192 10.1327 143.709 10.4949 144.135 10.9508C144.561 11.4067 144.887 11.9463 145.093 12.5352C145.299 13.1241 145.381 13.7496 145.332 14.3716L135.753 159.569C135.65 160.874 135.063 162.094 134.108 162.99C133.153 163.886 131.899 164.394 130.59 164.415Z" fill="white"/>
<path d="M115.03 9.52496H98.4652L58.3351 164.416H74.9002L115.03 9.52496Z" fill="#EDEFF7"/>
<path d="M129.624 9.52496H121.342L81.2116 164.416H89.4941L129.624 9.52496Z" fill="#EDEFF7"/>
<path opacity="0.2" d="M91.8983 175.947C94.0633 173.853 94.2298 170.513 92.2702 168.487C90.3106 166.462 86.967 166.517 84.802 168.612C82.637 170.706 82.4705 174.046 84.4301 176.072C86.3896 178.097 89.7333 178.042 91.8983 175.947Z" fill="white"/>
<path opacity="0.2" d="M101.604 4.48929C101.557 5.07743 101.292 5.62687 100.862 6.03012C100.431 6.43336 99.8652 6.66141 99.2752 6.66962C98.9957 6.67044 98.719 6.61338 98.4627 6.50204C98.2063 6.39071 97.9757 6.2275 97.7855 6.02269C97.5953 5.81788 97.4495 5.57591 97.3574 5.31201C97.2652 5.04811 97.2287 4.76799 97.2502 4.48929C97.2957 3.90058 97.56 3.35026 97.991 2.94672C98.4221 2.54317 98.9886 2.31565 99.579 2.30897C99.8585 2.30815 100.135 2.3652 100.392 2.47654C100.648 2.58788 100.879 2.75108 101.069 2.95589C101.259 3.1607 101.405 3.40267 101.497 3.66657C101.589 3.93047 101.625 4.21059 101.604 4.48929Z" fill="white"/>
<path opacity="0.2" d="M100.619 4.48931C100.595 4.81293 100.451 5.11593 100.215 5.3384C99.9783 5.56087 99.6672 5.68665 99.3427 5.69085C99.1879 5.69331 99.0343 5.66325 98.8918 5.60265C98.7494 5.54204 98.6212 5.45221 98.5156 5.33897C98.41 5.22574 98.3293 5.09161 98.2788 4.94526C98.2282 4.7989 98.209 4.64357 98.2222 4.48931C98.2458 4.16568 98.39 3.8627 98.6262 3.64022C98.8624 3.41775 99.1735 3.29198 99.498 3.28777C99.6528 3.28531 99.8064 3.31537 99.9489 3.37598C100.091 3.43659 100.22 3.5264 100.325 3.63964C100.431 3.75287 100.511 3.887 100.562 4.03335C100.612 4.17971 100.632 4.33504 100.619 4.48931Z" fill="white"/>
</svg>
