<svg width="20" height="20" viewBox="0 0 20 20" fill="none" xmlns="http://www.w3.org/2000/svg">
<path d="M9.99996 18.3333C5.39746 18.3333 1.66663 14.6025 1.66663 9.99996C1.66663 5.39746 5.39746 1.66663 9.99996 1.66663C14.6025 1.66663 18.3333 5.39746 18.3333 9.99996C18.3333 14.6025 14.6025 18.3333 9.99996 18.3333ZM9.99996 16.6666C11.7681 16.6666 13.4638 15.9642 14.714 14.714C15.9642 13.4638 16.6666 11.7681 16.6666 9.99996C16.6666 8.23185 15.9642 6.53616 14.714 5.28591C13.4638 4.03567 11.7681 3.33329 9.99996 3.33329C8.23185 3.33329 6.53616 4.03567 5.28591 5.28591C4.03567 6.53616 3.33329 8.23185 3.33329 9.99996C3.33329 11.7681 4.03567 13.4638 5.28591 14.714C6.53616 15.9642 8.23185 16.6666 9.99996 16.6666V16.6666ZM9.16663 12.5H10.8333V14.1666H9.16663V12.5ZM10.8333 11.1291V11.6666H9.16663V10.4166C9.16663 10.1956 9.25442 9.98365 9.4107 9.82737C9.56698 9.67109 9.77895 9.58329 9.99996 9.58329C10.2367 9.58328 10.4686 9.51604 10.6686 9.3894C10.8686 9.26276 11.0285 9.08193 11.1298 8.86795C11.231 8.65396 11.2694 8.41562 11.2405 8.18066C11.2116 7.9457 11.1166 7.72378 10.9665 7.54072C10.8164 7.35766 10.6174 7.22098 10.3926 7.1466C10.1679 7.07222 9.92666 7.06318 9.69698 7.12055C9.4673 7.17791 9.25864 7.29932 9.09526 7.47064C8.93189 7.64196 8.82053 7.85615 8.77413 8.08829L7.13913 7.76079C7.24049 7.2542 7.47455 6.7836 7.81739 6.39711C8.16024 6.01063 8.59956 5.72211 9.09045 5.56106C9.58134 5.40001 10.1062 5.3722 10.6114 5.48047C11.1165 5.58875 11.5839 5.82922 11.9656 6.17731C12.3474 6.52541 12.6299 6.96863 12.7842 7.46168C12.9385 7.95473 12.9592 8.47991 12.844 8.98355C12.7288 9.48719 12.482 9.95121 12.1287 10.3282C11.7754 10.7052 11.3284 10.9816 10.8333 11.1291V11.1291Z" fill="#875202"/>
</svg>
