<svg width="20" height="20" viewBox="0 0 20 20" fill="none" xmlns="http://www.w3.org/2000/svg">
<path d="M8.3108 15H11.6891C11.7991 13.9983 12.31 13.1716 13.1391 12.2691C13.2333 12.1675 13.8325 11.5466 13.9033 11.4583C14.4919 10.723 14.8608 9.83641 14.9676 8.90062C15.0743 7.96484 14.9146 7.01793 14.5068 6.16893C14.099 5.31993 13.4597 4.60338 12.6626 4.10179C11.8654 3.60021 10.9427 3.33398 10.0009 3.33378C9.05901 3.33358 8.13625 3.59941 7.33885 4.10066C6.54145 4.6019 5.90184 5.31818 5.49368 6.167C5.08553 7.01583 4.92542 7.96267 5.03179 8.8985C5.13817 9.83433 5.50671 10.7211 6.09497 11.4566C6.16663 11.5458 6.76747 12.1675 6.85997 12.2683C7.68997 13.1716 8.2008 13.9983 8.3108 15V15ZM11.6666 16.6666H8.3333V17.5H11.6666V16.6666ZM4.79497 12.5C4.01013 11.5194 3.51826 10.337 3.37602 9.08912C3.23378 7.8412 3.44697 6.57849 3.99101 5.44643C4.53506 4.31438 5.38783 3.35904 6.4511 2.69047C7.51436 2.02189 8.74487 1.66728 10.0009 1.66748C11.2569 1.66768 12.4873 2.02269 13.5503 2.6916C14.6134 3.36052 15.4658 4.31613 16.0095 5.44836C16.5532 6.58059 16.766 7.84337 16.6233 9.09124C16.4807 10.3391 15.9885 11.5213 15.2033 12.5016C14.6866 13.145 13.3333 14.1666 13.3333 15.4166V17.5C13.3333 17.942 13.1577 18.3659 12.8451 18.6785C12.5326 18.9911 12.1087 19.1666 11.6666 19.1666H8.3333C7.89127 19.1666 7.46735 18.9911 7.15479 18.6785C6.84223 18.3659 6.66663 17.942 6.66663 17.5V15.4166C6.66663 14.1666 5.31247 13.145 4.79497 12.5ZM10.8333 8.33665H12.9166L9.16663 13.3366V10.0033H7.0833L10.8333 4.99998V8.33748V8.33665Z" fill="#5732BF"/>
</svg>
