<svg width="20" height="20" viewBox="0 0 20 20" fill="none" xmlns="http://www.w3.org/2000/svg">
<path d="M16.1458 12.5858C16.6865 11.301 16.811 9.87913 16.5017 8.51997C16.1924 7.16082 15.465 5.93277 14.4216 5.00849C13.3782 4.08421 12.0714 3.51017 10.6849 3.36708C9.29832 3.224 7.90181 3.51906 6.69166 4.21078L5.86499 2.76328C7.12969 2.04046 8.56182 1.66192 10.0185 1.66543C11.4752 1.66894 12.9055 2.05437 14.1667 2.78328C17.9083 4.94328 19.3417 9.56828 17.5975 13.4249L18.7158 14.0699L15.245 15.9149L15.1075 11.9866L16.1458 12.5858ZM3.85416 7.41411C3.31345 8.69886 3.18898 10.1208 3.49826 11.4799C3.80753 12.8391 4.535 14.0671 5.57839 14.9914C6.62177 15.9157 7.92859 16.4897 9.31513 16.6328C10.7017 16.7759 12.0982 16.4808 13.3083 15.7891L14.135 17.2366C12.8703 17.9594 11.4382 18.338 9.98149 18.3345C8.52481 18.331 7.09452 17.9455 5.83332 17.2166C2.09166 15.0566 0.658325 10.4316 2.40249 6.57495L1.28333 5.93078L4.75416 4.08578L4.89166 8.01411L3.85333 7.41495L3.85416 7.41411ZM11.1792 12.3566L8.81999 9.99995L6.46333 12.3566L5.28499 11.1783L8.82083 7.64328L11.1783 9.99995L13.5358 7.64328L14.7142 8.82161L11.1783 12.3566H11.1792Z" fill="#1D62CA"/>
</svg>
