<svg width="20" height="20" viewBox="0 0 20 20" fill="none" xmlns="http://www.w3.org/2000/svg">
<path d="M9.16663 0.452459C9.44163 0.428293 9.71913 0.416626 9.99996 0.416626C15.2925 0.416626 19.5833 4.70746 19.5833 9.99996C19.5833 10.2808 19.5716 10.5583 19.5475 10.8333H18.2925C17.8741 15.0441 14.3208 18.3333 9.99996 18.3333C5.39746 18.3333 1.66663 14.6025 1.66663 9.99996C1.66663 5.67913 4.95579 2.12579 9.16663 1.70829V0.451626V0.452459ZM9.16663 10.8333V3.38496C7.48555 3.59886 5.949 4.44485 4.86928 5.75097C3.78956 7.0571 3.24769 8.72535 3.35381 10.4166C3.45993 12.108 4.20607 13.6954 5.44058 14.8563C6.67509 16.0172 8.30533 16.6645 9.99996 16.6666C11.6238 16.6666 13.1918 16.074 14.4097 15C15.6277 13.9259 16.4118 12.4444 16.615 10.8333H9.16663ZM17.8733 9.16663C17.6822 7.36488 16.8791 5.68312 15.598 4.40195C14.3168 3.12078 12.635 2.31767 10.8333 2.12663V9.16663H17.8733Z" fill="#963898"/>
</svg>
