<svg width="20" height="20" viewBox="0 0 20 20" fill="none" xmlns="http://www.w3.org/2000/svg">
<path d="M9.16669 1.66663C13.3067 1.66663 16.6667 5.02663 16.6667 9.16663C16.6667 13.3066 13.3067 16.6666 9.16669 16.6666C5.02669 16.6666 1.66669 13.3066 1.66669 9.16663C1.66669 5.02663 5.02669 1.66663 9.16669 1.66663ZM9.16669 15C12.3892 15 15 12.3891 15 9.16663C15 5.94329 12.3892 3.33329 9.16669 3.33329C5.94335 3.33329 3.33335 5.94329 3.33335 9.16663C3.33335 12.3891 5.94335 15 9.16669 15ZM16.2375 15.0591L18.595 17.4158L17.4159 18.595L15.0592 16.2375L16.2375 15.0591Z" fill="#191919"/>
</svg>
