<svg width="20" height="20" viewBox="0 0 20 20" fill="none" xmlns="http://www.w3.org/2000/svg">
<path d="M1.86925 5.71166L9.57508 1.09166C9.70459 1.01395 9.85279 0.9729 10.0038 0.9729C10.1549 0.9729 10.3031 1.01395 10.4326 1.09166L18.1309 5.71249C18.1927 5.7495 18.2438 5.80189 18.2793 5.86455C18.3148 5.9272 18.3334 5.99798 18.3334 6.06999V16.6667C18.3334 16.8877 18.2456 17.0996 18.0893 17.2559C17.9331 17.4122 17.7211 17.5 17.5001 17.5H2.50008C2.27907 17.5 2.06711 17.4122 1.91083 17.2559C1.75455 17.0996 1.66675 16.8877 1.66675 16.6667V6.06916C1.66673 5.99715 1.68538 5.92637 1.72087 5.86371C1.75636 5.80106 1.80748 5.74867 1.86925 5.71166ZM3.33341 6.77749V15.8333H16.6667V6.77666L10.0034 2.77666L3.33341 6.77666V6.77749ZM10.0501 11.415L14.4634 7.69583L15.5367 8.97083L10.0617 13.585L4.47008 8.97666L5.53008 7.68999L10.0501 11.415V11.415Z" fill="#289B4F"/>
</svg>
