<svg width="20" height="20" viewBox="0 0 20 20" fill="none" xmlns="http://www.w3.org/2000/svg">
<path d="M5.83341 3.33329V16.6666H14.1667V3.33329H5.83341ZM5.00008 1.66663H15.0001C15.2211 1.66663 15.4331 1.75442 15.5893 1.9107C15.7456 2.06698 15.8334 2.27895 15.8334 2.49996V17.5C15.8334 17.721 15.7456 17.9329 15.5893 18.0892C15.4331 18.2455 15.2211 18.3333 15.0001 18.3333H5.00008C4.77907 18.3333 4.56711 18.2455 4.41083 18.0892C4.25455 17.9329 4.16675 17.721 4.16675 17.5V2.49996C4.16675 2.27895 4.25455 2.06698 4.41083 1.9107C4.56711 1.75442 4.77907 1.66663 5.00008 1.66663ZM10.0001 14.1666C10.2211 14.1666 10.4331 14.2544 10.5893 14.4107C10.7456 14.567 10.8334 14.7789 10.8334 15C10.8334 15.221 10.7456 15.4329 10.5893 15.5892C10.4331 15.7455 10.2211 15.8333 10.0001 15.8333C9.77907 15.8333 9.56711 15.7455 9.41083 15.5892C9.25455 15.4329 9.16675 15.221 9.16675 15C9.16675 14.7789 9.25455 14.567 9.41083 14.4107C9.56711 14.2544 9.77907 14.1666 10.0001 14.1666V14.1666Z" fill="#2A917E"/>
</svg>
